<?xml version="1.0" standalone="no"?><!DOCTYPE svg PUBLIC "-//W3C//DTD SVG 1.1//EN" "http://www.w3.org/Graphics/SVG/1.1/DTD/svg11.dtd"><svg t="1686104397853" class="icon" viewBox="0 0 1026 1024" version="1.1" xmlns="http://www.w3.org/2000/svg" p-id="2465" xmlns:xlink="http://www.w3.org/1999/xlink" width="200.390625" height="200"><path d="M626.657357 2.553616H399.896259C180.285287 2.553616 2.553616 180.285287 2.553616 399.896259v226.761098c0 219.610973 177.731671 397.342643 397.342643 397.342643h226.761098c219.610973 0 397.342643-177.731671 397.342643-397.342643V399.896259c0-219.610973-177.731671-397.342643-397.342643-397.342643z m135.341645 822.775062s-19.407481-155.25985-108.784039-90.398005l31.154114-64.861845s-57.200998-111.848379-208.885785-123.595013l3.064339 38.814963c-0.510723 3.575062-1.021446 7.150125-1.53217 10.214464-3.575062 2.553616-10.725187 1.021446-27.579052-4.596509-1.53217-0.510723-2.553616-1.021446-4.085786-1.021446-18.386035-8.682294-39.325686-21.961097-50.561596-41.368579l-113.380548-0.510723c-5.617955 0-15.321696-0.510723-25.025437-3.064339-6.128678-1.53217-12.76808-4.085786-17.364588-8.171571-13.278803-11.23591-21.450374-30.643392 27.068329-52.093766 0 0-29.621945-114.401995 205.310723-123.084289 53.625935-46.47581 98.058853-49.54015 122.062843-46.475811 6.639401 0.510723 12.76808 2.042893 17.875312 4.596509h0.510723s-2.042893 39.836409-21.450374 67.926185c16.343142 13.789526 86.312219 75.076309 113.891272 125.127182 24.514713 40.347132 38.814963 88.865835 25.025436 141.470324 0.510723 0.510723 58.222444 45.454364 32.686284 171.092269z" fill="#1082FF" p-id="2466"></path></svg>